G04 #@! TF.GenerationSoftware,KiCad,Pcbnew,5.1.5-5.1.5*
G04 #@! TF.CreationDate,2020-09-02T20:46:33-05:00*
G04 #@! TF.ProjectId,74HC597-Breakout,37344843-3539-4372-9d42-7265616b6f75,rev?*
G04 #@! TF.SameCoordinates,Original*
G04 #@! TF.FileFunction,Legend,Bot*
G04 #@! TF.FilePolarity,Positive*
%FSLAX46Y46*%
G04 Gerber Fmt 4.6, Leading zero omitted, Abs format (unit mm)*
G04 Created by KiCad (PCBNEW 5.1.5-5.1.5) date 2020-09-02 20:46:33*
%MOMM*%
%LPD*%
G04 APERTURE LIST*
%ADD10C,0.150000*%
%ADD11C,0.250000*%
%ADD12C,0.127000*%
%ADD13C,0.120000*%
G04 APERTURE END LIST*
D10*
X132373619Y-128603333D02*
X132373619Y-127936666D01*
X131373619Y-128365238D01*
X132373619Y-124269523D02*
X132373619Y-124460000D01*
X132326000Y-124555238D01*
X132278380Y-124602857D01*
X132135523Y-124698095D01*
X131945047Y-124745714D01*
X131564095Y-124745714D01*
X131468857Y-124698095D01*
X131421238Y-124650476D01*
X131373619Y-124555238D01*
X131373619Y-124364761D01*
X131421238Y-124269523D01*
X131468857Y-124221904D01*
X131564095Y-124174285D01*
X131802190Y-124174285D01*
X131897428Y-124221904D01*
X131945047Y-124269523D01*
X131992666Y-124364761D01*
X131992666Y-124555238D01*
X131945047Y-124650476D01*
X131897428Y-124698095D01*
X131802190Y-124745714D01*
X132373619Y-120411904D02*
X132373619Y-120888095D01*
X131897428Y-120935714D01*
X131945047Y-120888095D01*
X131992666Y-120792857D01*
X131992666Y-120554761D01*
X131945047Y-120459523D01*
X131897428Y-120411904D01*
X131802190Y-120364285D01*
X131564095Y-120364285D01*
X131468857Y-120411904D01*
X131421238Y-120459523D01*
X131373619Y-120554761D01*
X131373619Y-120792857D01*
X131421238Y-120888095D01*
X131468857Y-120935714D01*
X132040285Y-116649523D02*
X131373619Y-116649523D01*
X132421238Y-116887619D02*
X131706952Y-117125714D01*
X131706952Y-116506666D01*
X132373619Y-113363333D02*
X132373619Y-112744285D01*
X131992666Y-113077619D01*
X131992666Y-112934761D01*
X131945047Y-112839523D01*
X131897428Y-112791904D01*
X131802190Y-112744285D01*
X131564095Y-112744285D01*
X131468857Y-112791904D01*
X131421238Y-112839523D01*
X131373619Y-112934761D01*
X131373619Y-113220476D01*
X131421238Y-113315714D01*
X131468857Y-113363333D01*
X132278380Y-109505714D02*
X132326000Y-109458095D01*
X132373619Y-109362857D01*
X132373619Y-109124761D01*
X132326000Y-109029523D01*
X132278380Y-108981904D01*
X132183142Y-108934285D01*
X132087904Y-108934285D01*
X131945047Y-108981904D01*
X131373619Y-109553333D01*
X131373619Y-108934285D01*
X131373619Y-105124285D02*
X131373619Y-105695714D01*
X131373619Y-105410000D02*
X132373619Y-105410000D01*
X132230761Y-105505238D01*
X132135523Y-105600476D01*
X132087904Y-105695714D01*
X132373619Y-128603333D02*
X132373619Y-127936666D01*
X131373619Y-128365238D01*
X131278380Y-101552380D02*
X131278380Y-101647619D01*
X131326000Y-101742857D01*
X131373619Y-101790476D01*
X131468857Y-101838095D01*
X131659333Y-101885714D01*
X131897428Y-101885714D01*
X132087904Y-101838095D01*
X132183142Y-101790476D01*
X132230761Y-101742857D01*
X132278380Y-101647619D01*
X132278380Y-101552380D01*
X132230761Y-101457142D01*
X132183142Y-101409523D01*
X132087904Y-101361904D01*
X131897428Y-101314285D01*
X131659333Y-101314285D01*
X131468857Y-101361904D01*
X131373619Y-101409523D01*
X131326000Y-101457142D01*
X131278380Y-101552380D01*
D11*
X142918571Y-111454857D02*
X141418571Y-111454857D01*
X142918571Y-112169142D02*
X141418571Y-112169142D01*
X142918571Y-113026285D01*
X141418571Y-113026285D01*
X142918571Y-113740571D02*
X141418571Y-113740571D01*
X141418571Y-114312000D01*
X141490000Y-114454857D01*
X141561428Y-114526285D01*
X141704285Y-114597714D01*
X141918571Y-114597714D01*
X142061428Y-114526285D01*
X142132857Y-114454857D01*
X142204285Y-114312000D01*
X142204285Y-113740571D01*
X141418571Y-115240571D02*
X142632857Y-115240571D01*
X142775714Y-115312000D01*
X142847142Y-115383428D01*
X142918571Y-115526285D01*
X142918571Y-115812000D01*
X142847142Y-115954857D01*
X142775714Y-116026285D01*
X142632857Y-116097714D01*
X141418571Y-116097714D01*
X141418571Y-116597714D02*
X141418571Y-117454857D01*
X142918571Y-117026285D02*
X141418571Y-117026285D01*
X142847142Y-117883428D02*
X142918571Y-118097714D01*
X142918571Y-118454857D01*
X142847142Y-118597714D01*
X142775714Y-118669142D01*
X142632857Y-118740571D01*
X142490000Y-118740571D01*
X142347142Y-118669142D01*
X142275714Y-118597714D01*
X142204285Y-118454857D01*
X142132857Y-118169142D01*
X142061428Y-118026285D01*
X141990000Y-117954857D01*
X141847142Y-117883428D01*
X141704285Y-117883428D01*
X141561428Y-117954857D01*
X141490000Y-118026285D01*
X141418571Y-118169142D01*
X141418571Y-118526285D01*
X141490000Y-118740571D01*
X152649428Y-123471714D02*
X152720857Y-123543142D01*
X152935142Y-123614571D01*
X153078000Y-123614571D01*
X153292285Y-123543142D01*
X153435142Y-123400285D01*
X153506571Y-123257428D01*
X153578000Y-122971714D01*
X153578000Y-122757428D01*
X153506571Y-122471714D01*
X153435142Y-122328857D01*
X153292285Y-122186000D01*
X153078000Y-122114571D01*
X152935142Y-122114571D01*
X152720857Y-122186000D01*
X152649428Y-122257428D01*
X152006571Y-123614571D02*
X152006571Y-122114571D01*
X152006571Y-122828857D02*
X151149428Y-122828857D01*
X151149428Y-123614571D02*
X151149428Y-122114571D01*
X150506571Y-123186000D02*
X149792285Y-123186000D01*
X150649428Y-123614571D02*
X150149428Y-122114571D01*
X149649428Y-123614571D01*
X149149428Y-123614571D02*
X149149428Y-122114571D01*
X148435142Y-123614571D02*
X148435142Y-122114571D01*
X147578000Y-123614571D01*
X147578000Y-122114571D01*
X145435142Y-122114571D02*
X145149428Y-122114571D01*
X145006571Y-122186000D01*
X144863714Y-122328857D01*
X144792285Y-122614571D01*
X144792285Y-123114571D01*
X144863714Y-123400285D01*
X145006571Y-123543142D01*
X145149428Y-123614571D01*
X145435142Y-123614571D01*
X145578000Y-123543142D01*
X145720857Y-123400285D01*
X145792285Y-123114571D01*
X145792285Y-122614571D01*
X145720857Y-122328857D01*
X145578000Y-122186000D01*
X145435142Y-122114571D01*
X144149428Y-122114571D02*
X144149428Y-123328857D01*
X144078000Y-123471714D01*
X144006571Y-123543142D01*
X143863714Y-123614571D01*
X143578000Y-123614571D01*
X143435142Y-123543142D01*
X143363714Y-123471714D01*
X143292285Y-123328857D01*
X143292285Y-122114571D01*
X142792285Y-122114571D02*
X141935142Y-122114571D01*
X142363714Y-123614571D02*
X142363714Y-122114571D01*
X151649428Y-108231714D02*
X151720857Y-108303142D01*
X151935142Y-108374571D01*
X152078000Y-108374571D01*
X152292285Y-108303142D01*
X152435142Y-108160285D01*
X152506571Y-108017428D01*
X152578000Y-107731714D01*
X152578000Y-107517428D01*
X152506571Y-107231714D01*
X152435142Y-107088857D01*
X152292285Y-106946000D01*
X152078000Y-106874571D01*
X151935142Y-106874571D01*
X151720857Y-106946000D01*
X151649428Y-107017428D01*
X151006571Y-108374571D02*
X151006571Y-106874571D01*
X151006571Y-107588857D02*
X150149428Y-107588857D01*
X150149428Y-108374571D02*
X150149428Y-106874571D01*
X149506571Y-107946000D02*
X148792285Y-107946000D01*
X149649428Y-108374571D02*
X149149428Y-106874571D01*
X148649428Y-108374571D01*
X148149428Y-108374571D02*
X148149428Y-106874571D01*
X147435142Y-108374571D02*
X147435142Y-106874571D01*
X146578000Y-108374571D01*
X146578000Y-106874571D01*
X144720857Y-108374571D02*
X144720857Y-106874571D01*
X144006571Y-108374571D02*
X144006571Y-106874571D01*
X143149428Y-108374571D01*
X143149428Y-106874571D01*
D12*
X130556000Y-100457000D02*
G75*
G03X130556000Y-100457000I-254000J0D01*
G01*
D13*
X142468000Y-102606000D02*
X142468000Y-103056000D01*
X142468000Y-103056000D02*
X143418000Y-103056000D01*
X143418000Y-103056000D02*
X143418000Y-104546000D01*
X153188000Y-102606000D02*
X153188000Y-103056000D01*
X153188000Y-103056000D02*
X152238000Y-103056000D01*
X142468000Y-99086000D02*
X142468000Y-98636000D01*
X142468000Y-98636000D02*
X153188000Y-98636000D01*
X153188000Y-98636000D02*
X153188000Y-99086000D01*
X142468000Y-131996000D02*
X142468000Y-131546000D01*
X153188000Y-131996000D02*
X142468000Y-131996000D01*
X153188000Y-131546000D02*
X153188000Y-131996000D01*
X142468000Y-127576000D02*
X143418000Y-127576000D01*
X142468000Y-128026000D02*
X142468000Y-127576000D01*
X152238000Y-127576000D02*
X152238000Y-126086000D01*
X153188000Y-127576000D02*
X152238000Y-127576000D01*
X153188000Y-128026000D02*
X153188000Y-127576000D01*
X136896000Y-121047000D02*
X137346000Y-121047000D01*
X137346000Y-121047000D02*
X137346000Y-120097000D01*
X137346000Y-120097000D02*
X138836000Y-120097000D01*
X136896000Y-109077000D02*
X137346000Y-109077000D01*
X137346000Y-109077000D02*
X137346000Y-110027000D01*
X133376000Y-121047000D02*
X132926000Y-121047000D01*
X132926000Y-121047000D02*
X132926000Y-109077000D01*
X132926000Y-109077000D02*
X133376000Y-109077000D01*
D10*
X148161333Y-105198380D02*
X148161333Y-105912666D01*
X148208952Y-106055523D01*
X148304190Y-106150761D01*
X148447047Y-106198380D01*
X148542285Y-106198380D01*
X147256571Y-105531714D02*
X147256571Y-106198380D01*
X147494666Y-105150761D02*
X147732761Y-105865047D01*
X147113714Y-105865047D01*
X148161333Y-124338380D02*
X148161333Y-125052666D01*
X148208952Y-125195523D01*
X148304190Y-125290761D01*
X148447047Y-125338380D01*
X148542285Y-125338380D01*
X147208952Y-124338380D02*
X147685142Y-124338380D01*
X147732761Y-124814571D01*
X147685142Y-124766952D01*
X147589904Y-124719333D01*
X147351809Y-124719333D01*
X147256571Y-124766952D01*
X147208952Y-124814571D01*
X147161333Y-124909809D01*
X147161333Y-125147904D01*
X147208952Y-125243142D01*
X147256571Y-125290761D01*
X147351809Y-125338380D01*
X147589904Y-125338380D01*
X147685142Y-125290761D01*
X147732761Y-125243142D01*
X140583619Y-115395333D02*
X139869333Y-115395333D01*
X139726476Y-115442952D01*
X139631238Y-115538190D01*
X139583619Y-115681047D01*
X139583619Y-115776285D01*
X140583619Y-114490571D02*
X140583619Y-114681047D01*
X140536000Y-114776285D01*
X140488380Y-114823904D01*
X140345523Y-114919142D01*
X140155047Y-114966761D01*
X139774095Y-114966761D01*
X139678857Y-114919142D01*
X139631238Y-114871523D01*
X139583619Y-114776285D01*
X139583619Y-114585809D01*
X139631238Y-114490571D01*
X139678857Y-114442952D01*
X139774095Y-114395333D01*
X140012190Y-114395333D01*
X140107428Y-114442952D01*
X140155047Y-114490571D01*
X140202666Y-114585809D01*
X140202666Y-114776285D01*
X140155047Y-114871523D01*
X140107428Y-114919142D01*
X140012190Y-114966761D01*
M02*
