M48
; DRILL file {KiCad 5.1.5-5.1.5} date Wed 02 Sep 2020 08:46:30 PM CDT
; FORMAT={-:-/ absolute / inch / decimal}
; #@! TF.CreationDate,2020-09-02T20:46:30-05:00
; #@! TF.GenerationSoftware,Kicad,Pcbnew,5.1.5-5.1.5
FMAT,2
INCH
T1C0.0157
T2C0.0300
%
G90
G05
T1
X5.45Y-4.0
X5.45Y-5.05
X5.5Y-4.05
X5.51Y-4.16
X5.51Y-4.3
X5.51Y-4.45
X5.51Y-4.6
X5.51Y-4.75
X5.51Y-4.9
X5.675Y-4.735
X5.805Y-4.665
X5.94Y-4.77
X5.975Y-4.15
X5.975Y-4.35
X5.975Y-4.4
X5.975Y-4.45
X6.03Y-4.3
X6.06Y-4.35
X6.0802Y-4.9902
X6.095Y-4.4
X6.13Y-4.45
T2
X5.22Y-5.26
X5.37Y-5.26
X5.52Y-5.26
X5.67Y-5.26
X5.82Y-5.26
X5.97Y-5.26
X6.12Y-5.26
X5.22Y-3.82
X5.37Y-3.82
X5.52Y-3.82
X5.67Y-3.82
X5.82Y-3.82
X5.97Y-3.82
X6.12Y-3.82
X5.1Y-4.0
X5.1Y-4.15
X5.1Y-4.3
X5.1Y-4.45
X5.1Y-4.6
X5.1Y-4.75
X5.1Y-4.9
X5.1Y-5.05
T0
M30
